<svg data-v-423bf9ae="" xmlns="http://www.w3.org/2000/svg" viewBox="0 0 394 90" class="iconLeft"><!----><!----><!----><g data-v-423bf9ae="" id="677af27a-c8a7-4c08-ba13-cf603e217e82" fill="#14274e" transform="matrix(4.687499580904879,0,0,4.687499580904879,107.74858275474867,-2.718745405786194)"><path d="M0.48 7.76L0.48 10.00C0.48 12.60 2.13 13.97 4.54 13.97C7.13 13.97 8.40 12.59 8.40 10.42L8.40 10.08L6.55 10.08L6.55 10.42C6.55 11.52 6.01 12.29 4.54 12.29C3.09 12.29 2.32 11.40 2.32 10.05L2.32 7.70C2.32 6.47 3.15 5.46 4.54 5.46C5.88 5.46 6.55 6.22 6.55 7.34L6.55 7.67L8.40 7.67L8.40 7.34C8.40 5.15 7.01 3.78 4.54 3.78C2.06 3.78 0.48 5.32 0.48 7.76ZM11.45 3.98L9.69 3.98L9.69 13.78L11.45 13.78ZM18.07 6.83L16.25 12.10L16.09 12.10L14.27 6.83L12.36 6.83L15.26 14.45L14.36 16.58L16.27 16.58L19.98 6.83ZM20.89 16.58L22.65 16.58L22.65 12.80L22.82 12.80C23.18 13.38 23.80 13.97 25.03 13.97C26.77 13.97 28.22 12.43 28.22 10.30C28.22 8.18 26.77 6.64 25.03 6.64C23.80 6.64 23.18 7.22 22.82 7.81L22.62 7.81L22.62 6.83L20.89 6.83ZM24.56 12.40C23.46 12.40 22.65 11.62 22.65 10.30C22.65 8.99 23.46 8.20 24.56 8.20C25.62 8.20 26.46 8.96 26.46 10.30C26.46 11.65 25.62 12.40 24.56 12.40ZM32.89 3.78C30.98 3.78 29.48 4.87 29.48 6.62C29.48 8.40 30.62 9.09 32.72 9.55L32.84 9.58C34.13 9.86 34.86 10.12 34.86 10.98C34.86 11.69 34.30 12.32 33.11 12.32C31.63 12.32 30.94 11.51 30.94 10.30L30.94 10.08L29.12 10.08L29.12 10.39C29.12 12.68 30.66 13.97 33.05 13.97C35.14 13.97 36.68 12.87 36.68 10.89C36.68 9.11 35.49 8.40 33.47 7.95L33.35 7.92C32.17 7.66 31.30 7.49 31.30 6.58C31.30 5.92 31.91 5.43 32.89 5.43C34.01 5.43 34.72 5.92 34.72 7.03L34.72 7.31L36.51 7.31L36.51 6.89C36.51 4.93 34.99 3.78 32.89 3.78ZM43.05 6.83L41.23 12.10L41.06 12.10L39.24 6.83L37.34 6.83L40.24 14.45L39.34 16.58L41.24 16.58L44.95 6.83ZM45.86 6.83L45.86 13.78L47.63 13.78L47.63 10.19C47.63 8.96 48.23 8.26 49.36 8.26C50.37 8.26 50.93 8.83 50.93 9.80L50.93 13.78L52.70 13.78L52.70 9.63C52.70 7.83 51.53 6.72 49.99 6.72C48.72 6.72 48.08 7.31 47.80 7.95L47.60 7.95L47.60 6.83ZM53.87 10.30C53.87 12.46 55.47 13.97 57.48 13.97C59.43 13.97 60.65 12.89 60.98 11.31L59.25 10.88C59.07 11.76 58.58 12.35 57.51 12.35C56.38 12.35 55.64 11.54 55.64 10.30C55.64 9.07 56.45 8.26 57.51 8.26C58.58 8.26 59.12 8.93 59.25 9.74L60.98 9.30C60.62 7.71 59.42 6.64 57.48 6.64C55.47 6.64 53.87 8.15 53.87 10.30Z"></path></g><!----><g data-v-423bf9ae="" id="3fa6a7fc-2a81-4d38-bfbf-e4400e33805f" transform="matrix(1.451589681975007,0,0,1.451589681975007,-27.805282262437572,-27.805998798512633)" stroke="none" fill="#14274e"><path d="M46.964 47.671l3.045 3.045L53.75 36.75l-13.966 3.741 3.645 3.645L26.686 60.88A25.786 25.786 0 0 1 24.5 50.5c0-14.336 11.664-26 26-26 7.312 0 13.924 3.038 18.652 7.913l3.534-3.534C67.052 23.099 59.19 19.5 50.5 19.5c-17.093 0-31 13.907-31 31a30.836 30.836 0 0 0 6.11 18.456l1.521-1.521.035.035 19.798-19.799zM75.89 32.746l-3.598 3.598c.019.029.035.06.054.089l-18.31 18.309-3.752-3.752-3.741 13.966 13.966-3.741-2.938-2.938 17.166-17.166A25.816 25.816 0 0 1 76.5 50.5c0 14.337-11.663 26-26 26-7.007 0-13.37-2.791-18.051-7.313l-3.534 3.534c5.586 5.428 13.199 8.78 21.585 8.78 17.094 0 31-13.906 31-31 0-6.602-2.08-12.722-5.61-17.755z"></path></g><!----></svg>